{
    "asset":{
        "generator":"Khronos glTF Blender I/O v3.5.30",
        "version":"2.0"
    },
    "scene":0,
    "scenes":[
        {
            "name":"Scene",
            "nodes":[
                0,
                1,
                2,
                3,
                4
            ]
        }
    ],
    "nodes":[
        {
            "mesh":0,
            "name":"Cube_Brick_Beige",
            "rotation":[
                0.7071068286895752,
                0,
                0,
                0.7071068286895752
            ]
        },
        {
            "mesh":1,
            "name":"Cube_Brick_Cinder",
            "rotation":[
                0.7071068286895752,
                0,
                0,
                0.7071068286895752
            ]
        },
        {
            "mesh":2,
            "name":"Cube_Brick_Concrete",
            "rotation":[
                0.7071068286895752,
                0,
                0,
                0.7071068286895752
            ]
        },
        {
            "mesh":3,
            "name":"Cube_Brick_Yellow",
            "rotation":[
                0.7071068286895752,
                0,
                0,
                0.7071068286895752
            ]
        },
        {
            "mesh":4,
            "name":"Cube_Tile_White",
            "rotation":[
                0.7071068286895752,
                0,
                0,
                0.7071068286895752
            ]
        }
    ],
    "materials":[
        {
            "doubleSided":true,
            "name":"Cube_Brick_Beige",
            "normalTexture":{
                "index":0
            },
            "pbrMetallicRoughness":{
                "baseColorTexture":{
                    "index":1
                },
                "metallicFactor":0,
                "roughnessFactor":1.0,
                "metallicRoughnessTexture":{
                    "index":2
                }
            }
        },
        {
            "doubleSided":true,
            "name":"Cube_Brick_Cinder",
            "normalTexture":{
                "index":3
            },
            "pbrMetallicRoughness":{
                "baseColorTexture":{
                    "index":4
                },
                "metallicFactor":0,
                "roughnessFactor":0.25,
                "metallicRoughnessTexture":{
                    "index":5
                }
            }
        },
        {
            "doubleSided":true,
            "name":"Cube_Brick_Concrete",
            "normalTexture":{
                "index":6
            },
            "pbrMetallicRoughness":{
                "baseColorTexture":{
                    "index":7
                },
                "metallicFactor":0,
                "roughnessFactor":0.5,
                "metallicRoughnessTexture":{
                    "index":8
                }
            }
        },
        {
            "doubleSided":true,
            "name":"Cube_Brick_Yellow",
            "normalTexture":{
                "index":9
            },
            "pbrMetallicRoughness":{
                "baseColorTexture":{
                    "index":10
                },
                "metallicFactor":0,
                "roughnessFactor":0.75,
                "metallicRoughnessTexture":{
                    "index":11
                }
            }
        },
        {
            "doubleSided":true,
            "name":"Cube_Tile_White",
            "normalTexture":{
                "index":12
            },
            "pbrMetallicRoughness":{
                "baseColorTexture":{
                    "index":13
                },
                "metallicFactor":0,
                "roughnessFactor":0.0,
                "metallicRoughnessTexture":{
                    "index":14
                }
            }
        }
    ],
    "meshes":[
        {
            "name":"Cube_Brick_Biege",
            "primitives":[
                {
                    "attributes":{
                        "POSITION":0,
                        "TEXCOORD_0":1,
                        "NORMAL":2
                    },
                    "indices":3,
                    "material":0
                }
            ]
        },
        {
            "name":"Cube_Brick_Cinder",
            "primitives":[
                {
                    "attributes":{
                        "POSITION":4,
                        "TEXCOORD_0":5,
                        "NORMAL":6
                    },
                    "indices":3,
                    "material":1
                }
            ]
        },
        {
            "name":"Cube_Brick_Concrete",
            "primitives":[
                {
                    "attributes":{
                        "POSITION":7,
                        "TEXCOORD_0":8,
                        "NORMAL":9
                    },
                    "indices":3,
                    "material":2
                }
            ]
        },
        {
            "name":"Cube_Brick_Yellow",
            "primitives":[
                {
                    "attributes":{
                        "POSITION":10,
                        "TEXCOORD_0":11,
                        "NORMAL":12
                    },
                    "indices":3,
                    "material":3
                }
            ]
        },
        {
            "name":"Cube_Brick_White",
            "primitives":[
                {
                    "attributes":{
                        "POSITION":13,
                        "TEXCOORD_0":14,
                        "NORMAL":15
                    },
                    "indices":16,
                    "material":4
                }
            ]
        }
    ],
    "textures":[
        {
            "sampler":0,
            "source":0
        },
        {
            "sampler":0,
            "source":1
        },
        {
            "sampler":0,
            "source":2
        },
        {
            "sampler":0,
            "source":3
        },
        {
            "sampler":0,
            "source":4
        },
        {
            "sampler":0,
            "source":5
        },
        {
            "sampler":0,
            "source":6
        },
        {
            "sampler":0,
            "source":7
        },
        {
            "sampler":0,
            "source":8
        },
        {
            "sampler":0,
            "source":9
        },
        {
            "sampler":0,
            "source":10
        },
        {
            "sampler":0,
            "source":11
        },
        {
            "sampler":0,
            "source":12
        },
        {
            "sampler":0,
            "source":13
        },
        {
            "sampler":0,
            "source":14
        }
    ],
    "images":[
        {
            "mimeType":"image/png",
            "name":"T_Brick_Beige_N.dds",
            "uri":"T_Brick_Beige_N.dds"
        },
        {
            "mimeType":"image/png",
            "name":"T_Brick_Beige_D.dds",
            "uri":"T_Brick_Beige_D.dds"
        },
        {
            "mimeType":"image/png",
            "name":"T_Brick_Beige_R.dds",
            "uri":"T_Brick_Beige_R.dds"
        },
        {
            "mimeType":"image/png",
            "name":"T_Brick_Cinder_N.dds",
            "uri":"T_Brick_Cinder_N.dds"
        },
        {
            "mimeType":"image/png",
            "name":"T_Brick_Cinder_D.dds",
            "uri":"T_Brick_Cinder_D.dds"
        },
        {
            "mimeType":"image/png",
            "name":"T_Brick_Cinder_R.dds",
            "uri":"T_Brick_Cinder_R.dds"
        },
        {
            "mimeType":"image/png",
            "name":"T_Brick_Concrete_N.dds",
            "uri":"T_Brick_Concrete_N.dds"
        },
        {
            "mimeType":"image/png",
            "name":"T_Brick_Concrete_D.dds",
            "uri":"T_Brick_Concrete_D.dds"
        },
        {
            "mimeType":"image/png",
            "name":"T_Brick_Concrete_R.dds",
            "uri":"T_Brick_Concrete_R.dds"
        },
        {
            "mimeType":"image/png",
            "name":"T_Brick_Yellow_N.dds",
            "uri":"T_Brick_Yellow_N.dds"
        },
        {
            "mimeType":"image/png",
            "name":"T_Brick_Yellow_D.dds",
            "uri":"T_Brick_Yellow_D.dds"
        },
        {
            "mimeType":"image/png",
            "name":"T_Brick_Yellow_R.dds",
            "uri":"T_Brick_Yellow_R.dds"
        },
        {
            "mimeType":"image/png",
            "name":"T_Tile_White_N.dds",
            "uri":"T_Tile_White_N.dds"
        },
        {
            "mimeType":"image/png",
            "name":"T_Tile_White_D.dds",
            "uri":"T_Tile_White_D.dds"
        },
        {
            "mimeType":"image/png",
            "name":"T_Tile_White_R.dds",
            "uri":"T_Tile_White_R.dds"
        }
    ],
    "accessors":[
        {
            "bufferView":0,
            "componentType":5126,
            "count":610,
            "max":[
                1,
                1,
                1
            ],
            "min":[
                -1,
                -1,
                -1
            ],
            "type":"VEC3"
        },
        {
            "bufferView":1,
            "componentType":5126,
            "count":610,
            "type":"VEC2"
        },
        {
            "bufferView":2,
            "componentType":5126,
            "count":610,
            "type":"VEC3"
        },
        {
            "bufferView":3,
            "componentType":5123,
            "count":2916,
            "type":"SCALAR"
        },
        {
            "bufferView":4,
            "componentType":5126,
            "count":610,
            "max":[
                1,
                1,
                1
            ],
            "min":[
                -1,
                -1,
                -1
            ],
            "type":"VEC3"
        },
        {
            "bufferView":5,
            "componentType":5126,
            "count":610,
            "type":"VEC2"
        },
        {
            "bufferView":6,
            "componentType":5126,
            "count":610,
            "type":"VEC3"
        },
        {
            "bufferView":7,
            "componentType":5126,
            "count":610,
            "max":[
                1,
                1,
                1
            ],
            "min":[
                -1,
                -1,
                -1
            ],
            "type":"VEC3"
        },
        {
            "bufferView":8,
            "componentType":5126,
            "count":610,
            "type":"VEC2"
        },
        {
            "bufferView":9,
            "componentType":5126,
            "count":610,
            "type":"VEC3"
        },
        {
            "bufferView":10,
            "componentType":5126,
            "count":610,
            "max":[
                1,
                1,
                1
            ],
            "min":[
                -1,
                -1,
                -1
            ],
            "type":"VEC3"
        },
        {
            "bufferView":11,
            "componentType":5126,
            "count":610,
            "type":"VEC2"
        },
        {
            "bufferView":12,
            "componentType":5126,
            "count":610,
            "type":"VEC3"
        },
        {
            "bufferView":13,
            "componentType":5126,
            "count":614,
            "max":[
                1,
                1,
                1
            ],
            "min":[
                -1,
                -1,
                -1
            ],
            "type":"VEC3"
        },
        {
            "bufferView":14,
            "componentType":5126,
            "count":614,
            "type":"VEC2"
        },
        {
            "bufferView":15,
            "componentType":5126,
            "count":614,
            "type":"VEC3"
        },
        {
            "bufferView":16,
            "componentType":5123,
            "count":2916,
            "type":"SCALAR"
        }
    ],
    "bufferViews":[
        {
            "buffer":0,
            "byteLength":7320,
            "byteOffset":0,
            "target":34962
        },
        {
            "buffer":0,
            "byteLength":4880,
            "byteOffset":7320,
            "target":34962
        },
        {
            "buffer":0,
            "byteLength":7320,
            "byteOffset":12200,
            "target":34962
        },
        {
            "buffer":0,
            "byteLength":5832,
            "byteOffset":19520,
            "target":34963
        },
        {
            "buffer":0,
            "byteLength":7320,
            "byteOffset":25352,
            "target":34962
        },
        {
            "buffer":0,
            "byteLength":4880,
            "byteOffset":32672,
            "target":34962
        },
        {
            "buffer":0,
            "byteLength":7320,
            "byteOffset":37552,
            "target":34962
        },
        {
            "buffer":0,
            "byteLength":7320,
            "byteOffset":44872,
            "target":34962
        },
        {
            "buffer":0,
            "byteLength":4880,
            "byteOffset":52192,
            "target":34962
        },
        {
            "buffer":0,
            "byteLength":7320,
            "byteOffset":57072,
            "target":34962
        },
        {
            "buffer":0,
            "byteLength":7320,
            "byteOffset":64392,
            "target":34962
        },
        {
            "buffer":0,
            "byteLength":4880,
            "byteOffset":71712,
            "target":34962
        },
        {
            "buffer":0,
            "byteLength":7320,
            "byteOffset":76592,
            "target":34962
        },
        {
            "buffer":0,
            "byteLength":7368,
            "byteOffset":83912,
            "target":34962
        },
        {
            "buffer":0,
            "byteLength":4912,
            "byteOffset":91280,
            "target":34962
        },
        {
            "buffer":0,
            "byteLength":7368,
            "byteOffset":96192,
            "target":34962
        },
        {
            "buffer":0,
            "byteLength":5832,
            "byteOffset":103560,
            "target":34963
        }
    ],
    "samplers":[
        {
            "magFilter":9729,
            "minFilter":9987
        }
    ],
    "buffers":[
        {
            "byteLength":109392,
            "uri":"Cubes.bin"
        }
    ]
}
