{
    "asset":{
        "generator":"Khronos glTF Blender I/O v3.5.30",
        "version":"2.0"
    },
    "scene":0,
    "scenes":[
        {
            "name":"Scene",
            "nodes":[
                0,
                1,
                2,
                3,
                4,
                5,
                6,
                7,
                8
            ]
        }
    ],
    "nodes":[
        {
            "mesh":0,
            "name":"Floor"
        },
        {
            "mesh":1,
            "name":"LupaPupa_Icosphere"
        },
        {
            "mesh":2,
            "name":"PupaLupa_Icosphere"
        },
        {
            "mesh":3,
            "name":"ShaderBall_Brick_Beige_ShaderBall"
        },
        {
            "mesh":4,
            "name":"ShaderBall_Brick_Cinder_ShaderBall"
        },
        {
            "mesh":5,
            "name":"ShaderBall_Brick_Concrete_ShaderBall"
        },
        {
            "mesh":6,
            "name":"ShaderBall_Brick_Yellow_ShaderBall"
        },
        {
            "mesh":7,
            "name":"ShaderBall_Concrete_Shimizu_ShaderBall"
        },
        {
            "mesh":8,
            "name":"ShaderBall_Glass_ShaderBall"
        }
    ],
    "materials":[
        {
            "doubleSided":true,
            "name":"Tile_White",
            "normalTexture":{
                "index":0
            },
            "pbrMetallicRoughness":{
                "baseColorTexture":{
                    "index":1
                },
                "metallicRoughnessTexture":{
                    "index":2
                }
            }
        },
        {
            "doubleSided":true,
            "name":"Mirror",
            "pbrMetallicRoughness":{
                "baseColorTexture":{
                    "index":3
                },
                "metallicRoughnessTexture":{
                    "index":4
                }
            }
        },
        {
            "doubleSided":true,
            "name":"Black",
            "normalTexture":{
                "index":5
            },
            "pbrMetallicRoughness":{
                "baseColorTexture":{
                    "index":6
                },
                "metallicRoughnessTexture":{
                    "index":7
                }
            }
        },
        {
            "doubleSided":true,
            "name":"Gold",
            "normalTexture":{
                "index":8
            },
            "pbrMetallicRoughness":{
                "baseColorTexture":{
                    "index":9
                },
                "metallicRoughnessTexture":{
                    "index":10
                }
            }
        },
        {
            "doubleSided":true,
            "name":"Green",
            "normalTexture":{
                "index":11
            },
            "pbrMetallicRoughness":{
                "baseColorTexture":{
                    "index":12
                },
                "metallicRoughnessTexture":{
                    "index":13
                }
            }
        },
        {
            "doubleSided":true,
            "name":"Brick_Yellow",
            "normalTexture":{
                "index":14
            },
            "pbrMetallicRoughness":{
                "baseColorTexture":{
                    "index":15
                },
                "metallicRoughnessTexture":{
                    "index":16
                }
            }
        },
        {
            "doubleSided":true,
            "name":"Red",
            "normalTexture":{
                "index":17
            },
            "pbrMetallicRoughness":{
                "baseColorTexture":{
                    "index":18
                },
                "metallicRoughnessTexture":{
                    "index":19
                }
            }
        },
        {
            "doubleSided":true,
            "name":"Concrete_Shimizu",
            "normalTexture":{
                "index":20
            },
            "pbrMetallicRoughness":{
                "baseColorTexture":{
                    "index":21
                },
                "metallicRoughnessTexture":{
                    "index":22
                }
            }
        }
    ],
    "meshes":[
        {
            "name":"Floor",
            "primitives":[
                {
                    "attributes":{
                        "POSITION":0,
                        "TEXCOORD_0":1,
                        "NORMAL":2
                    },
                    "indices":3,
                    "material":0
                }
            ]
        },
        {
            "name":"LupaPupa_Icosphere",
            "primitives":[
                {
                    "attributes":{
                        "POSITION":4,
                        "TEXCOORD_0":5,
                        "NORMAL":6
                    },
                    "indices":7,
                    "material":1
                }
            ]
        },
        {
            "name":"PupaLupa_Icosphere",
            "primitives":[
                {
                    "attributes":{
                        "POSITION":8,
                        "TEXCOORD_0":9,
                        "NORMAL":10
                    },
                    "indices":7,
                    "material":1
                }
            ]
        },
        {
            "name":"ShaderBall_Brick_Beige_ShaderBall",
            "primitives":[
                {
                    "attributes":{
                        "POSITION":11,
                        "TEXCOORD_0":12,
                        "NORMAL":13
                    },
                    "indices":14,
                    "material":2
                }
            ]
        },
        {
            "name":"ShaderBall_Brick_Cinder_ShaderBall",
            "primitives":[
                {
                    "attributes":{
                        "POSITION":15,
                        "TEXCOORD_0":16,
                        "NORMAL":17
                    },
                    "indices":14,
                    "material":3
                }
            ]
        },
        {
            "name":"ShaderBall_Brick_Concrete_ShaderBall",
            "primitives":[
                {
                    "attributes":{
                        "POSITION":18,
                        "TEXCOORD_0":19,
                        "NORMAL":20
                    },
                    "indices":14,
                    "material":4
                }
            ]
        },
        {
            "name":"ShaderBall_Brick_Yellow_ShaderBall",
            "primitives":[
                {
                    "attributes":{
                        "POSITION":21,
                        "TEXCOORD_0":22,
                        "NORMAL":23
                    },
                    "indices":14,
                    "material":5
                }
            ]
        },
        {
            "name":"ShaderBall_Concrete_Shimizu_ShaderBall",
            "primitives":[
                {
                    "attributes":{
                        "POSITION":24,
                        "TEXCOORD_0":25,
                        "NORMAL":26
                    },
                    "indices":14,
                    "material":6
                }
            ]
        },
        {
            "name":"ShaderBall_Glass_ShaderBall",
            "primitives":[
                {
                    "attributes":{
                        "POSITION":27,
                        "TEXCOORD_0":28,
                        "NORMAL":29
                    },
                    "indices":14,
                    "material":7
                }
            ]
        }
    ],
    "textures":[
        {
            "sampler":0,
            "source":0
        },
        {
            "sampler":0,
            "source":1
        },
        {
            "sampler":0,
            "source":2
        },
        {
            "sampler":0,
            "source":3
        },
        {
            "sampler":0,
            "source":4
        },
        {
            "sampler":0,
            "source":5
        },
        {
            "sampler":0,
            "source":6
        },
        {
            "sampler":0,
            "source":7
        },
        {
            "sampler":0,
            "source":5
        },
        {
            "sampler":0,
            "source":8
        },
        {
            "sampler":0,
            "source":9
        },
        {
            "sampler":0,
            "source":10
        },
        {
            "sampler":0,
            "source":11
        },
        {
            "sampler":0,
            "source":12
        },
        {
            "sampler":0,
            "source":13
        },
        {
            "sampler":0,
            "source":14
        },
        {
            "sampler":0,
            "source":15
        },
        {
            "sampler":0,
            "source":16
        },
        {
            "sampler":0,
            "source":17
        },
        {
            "sampler":0,
            "source":18
        },
        {
            "sampler":0,
            "source":19
        },
        {
            "sampler":0,
            "source":20
        },
        {
            "sampler":0,
            "source":21
        }
    ],
    "images":[
        {
            "mimeType":"image/png",
            "name":"T_Tile_White_N.dds",
            "uri":"T_Tile_White_N.dds"
        },
        {
            "mimeType":"image/png",
            "name":"T_Tile_White_D.dds",
            "uri":"T_Tile_White_D.dds"
        },
        {
            "mimeType":"image/png",
            "name":"T_Tile_White_R.dds",
            "uri":"T_Tile_White_R.dds"
        },
        {
            "mimeType":"image/png",
            "name":"white.png",
            "uri":"white.png"
        },
        {
            "mimeType":"image/png",
            "name":"roughness0_metalness1.png",
            "uri":"roughness0_metalness1.png"
        },
        {
            "mimeType":"image/png",
            "name":"flat_normal.png",
            "uri":"flat_normal.png"
        },
        {
            "mimeType":"image/png",
            "name":"black.png",
            "uri":"black.png"
        },
        {
            "mimeType":"image/png",
            "name":"roughness0_metalness0.png",
            "uri":"roughness0_metalness0.png"
        },
        {
            "mimeType":"image/png",
            "name":"gold.png",
            "uri":"gold.png"
        },
        {
            "mimeType":"image/png",
            "name":"gold_mat.png",
            "uri":"gold_mat.png"
        },
        {
            "mimeType":"image/png",
            "name":"T_Brick_Concrete_N.dds",
            "uri":"T_Brick_Concrete_N.dds"
        },
        {
            "mimeType":"image/png",
            "name":"green.png",
            "uri":"green.png"
        },
        {
            "mimeType":"image/png",
            "name":"T_Brick_Concrete_R.dds",
            "uri":"T_Brick_Concrete_R.dds"
        },
        {
            "mimeType":"image/png",
            "name":"T_Brick_Yellow_N.dds",
            "uri":"T_Brick_Yellow_N.dds"
        },
        {
            "mimeType":"image/png",
            "name":"T_Brick_Yellow_D.dds",
            "uri":"T_Brick_Yellow_D.dds"
        },
        {
            "mimeType":"image/png",
            "name":"T_Brick_Yellow_R.dds",
            "uri":"T_Brick_Yellow_R.dds"
        },
        {
            "mimeType":"image/png",
            "name":"T_Brick_Beige_N.dds",
            "uri":"T_Brick_Beige_N.dds"
        },
        {
            "mimeType":"image/png",
            "name":"red.png",
            "uri":"red.png"
        },
        {
            "mimeType":"image/png",
            "name":"roughness1_metalness0.png",
            "uri":"roughness1_metalness0.png"
        },
        {
            "mimeType":"image/png",
            "name":"T_Concrete_Shimizu_N.dds",
            "uri":"T_Concrete_Shimizu_N.dds"
        },
        {
            "mimeType":"image/png",
            "name":"T_Concrete_Shimizu_D.dds",
            "uri":"T_Concrete_Shimizu_D.dds"
        },
        {
            "mimeType":"image/png",
            "name":"T_Concrete_Shimizu_R.dds",
            "uri":"T_Concrete_Shimizu_R.dds"
        }
    ],
    "accessors":[
        {
            "bufferView":0,
            "componentType":5126,
            "count":44,
            "max":[
                10.00000286102295,
                10,
                10.00000286102295
            ],
            "min":[
                -10.00000286102295,
                0,
                -10.00000286102295
            ],
            "type":"VEC3"
        },
        {
            "bufferView":1,
            "componentType":5126,
            "count":44,
            "type":"VEC2"
        },
        {
            "bufferView":2,
            "componentType":5126,
            "count":44,
            "type":"VEC3"
        },
        {
            "bufferView":3,
            "componentType":5123,
            "count":108,
            "type":"SCALAR"
        },
        {
            "bufferView":4,
            "componentType":5126,
            "count":3292,
            "max":[
                1.2989310026168823,
                2.802759885787964,
                -5.617668151855469
            ],
            "min":[
                -1.2975330352783203,
                0.20638500154018402,
                -6.39371395111084
            ],
            "type":"VEC3"
        },
        {
            "bufferView":5,
            "componentType":5126,
            "count":3292,
            "type":"VEC2"
        },
        {
            "bufferView":6,
            "componentType":5126,
            "count":3292,
            "type":"VEC3"
        },
        {
            "bufferView":7,
            "componentType":5123,
            "count":17580,
            "type":"SCALAR"
        },
        {
            "bufferView":8,
            "componentType":5126,
            "count":3292,
            "max":[
                1.2989319562911987,
                2.802759885787964,
                6.39371395111084
            ],
            "min":[
                -1.2975319623947144,
                0.20638500154018402,
                5.617668151855469
            ],
            "type":"VEC3"
        },
        {
            "bufferView":9,
            "componentType":5126,
            "count":3292,
            "type":"VEC2"
        },
        {
            "bufferView":10,
            "componentType":5126,
            "count":3292,
            "type":"VEC3"
        },
        {
            "bufferView":11,
            "componentType":5126,
            "count":5482,
            "max":[
                1.0599989891052246,
                2.1428279876708984,
                1.0638999938964844
            ],
            "min":[
                -1.0600019693374634,
                0,
                -0.9092530012130737
            ],
            "type":"VEC3"
        },
        {
            "bufferView":12,
            "componentType":5126,
            "count":5482,
            "type":"VEC2"
        },
        {
            "bufferView":13,
            "componentType":5126,
            "count":5482,
            "type":"VEC3"
        },
        {
            "bufferView":14,
            "componentType":5123,
            "count":29328,
            "type":"SCALAR"
        },
        {
            "bufferView":15,
            "componentType":5126,
            "count":5482,
            "max":[
                -1.9400010108947754,
                2.1428279876708984,
                1.0638999938964844
            ],
            "min":[
                -4.060001850128174,
                0,
                -0.9092530012130737
            ],
            "type":"VEC3"
        },
        {
            "bufferView":16,
            "componentType":5126,
            "count":5482,
            "type":"VEC2"
        },
        {
            "bufferView":17,
            "componentType":5126,
            "count":5482,
            "type":"VEC3"
        },
        {
            "bufferView":18,
            "componentType":5126,
            "count":5482,
            "max":[
                -1.9400010108947754,
                2.1428279876708984,
                4.063899993896484
            ],
            "min":[
                -4.059998989105225,
                0,
                2.090747117996216
            ],
            "type":"VEC3"
        },
        {
            "bufferView":19,
            "componentType":5126,
            "count":5482,
            "type":"VEC2"
        },
        {
            "bufferView":20,
            "componentType":5126,
            "count":5482,
            "type":"VEC3"
        },
        {
            "bufferView":21,
            "componentType":5126,
            "count":5482,
            "max":[
                4.059998989105225,
                2.1428279876708984,
                1.0638999938964844
            ],
            "min":[
                1.9399980306625366,
                0,
                -0.9092530012130737
            ],
            "type":"VEC3"
        },
        {
            "bufferView":22,
            "componentType":5126,
            "count":5482,
            "type":"VEC2"
        },
        {
            "bufferView":23,
            "componentType":5126,
            "count":5482,
            "type":"VEC3"
        },
        {
            "bufferView":24,
            "componentType":5126,
            "count":5482,
            "max":[
                4.059998989105225,
                2.1428279876708984,
                4.063899993896484
            ],
            "min":[
                1.9399980306625366,
                0,
                2.090747117996216
            ],
            "type":"VEC3"
        },
        {
            "bufferView":25,
            "componentType":5126,
            "count":5482,
            "type":"VEC2"
        },
        {
            "bufferView":26,
            "componentType":5126,
            "count":5482,
            "type":"VEC3"
        },
        {
            "bufferView":27,
            "componentType":5126,
            "count":5482,
            "max":[
                1.0599989891052246,
                2.1428279876708984,
                4.063899993896484
            ],
            "min":[
                -1.0600019693374634,
                0,
                2.090747117996216
            ],
            "type":"VEC3"
        },
        {
            "bufferView":28,
            "componentType":5126,
            "count":5482,
            "type":"VEC2"
        },
        {
            "bufferView":29,
            "componentType":5126,
            "count":5482,
            "type":"VEC3"
        }
    ],
    "bufferViews":[
        {
            "buffer":0,
            "byteLength":528,
            "byteOffset":0,
            "target":34962
        },
        {
            "buffer":0,
            "byteLength":352,
            "byteOffset":528,
            "target":34962
        },
        {
            "buffer":0,
            "byteLength":528,
            "byteOffset":880,
            "target":34962
        },
        {
            "buffer":0,
            "byteLength":216,
            "byteOffset":1408,
            "target":34963
        },
        {
            "buffer":0,
            "byteLength":39504,
            "byteOffset":1624,
            "target":34962
        },
        {
            "buffer":0,
            "byteLength":26336,
            "byteOffset":41128,
            "target":34962
        },
        {
            "buffer":0,
            "byteLength":39504,
            "byteOffset":67464,
            "target":34962
        },
        {
            "buffer":0,
            "byteLength":35160,
            "byteOffset":106968,
            "target":34963
        },
        {
            "buffer":0,
            "byteLength":39504,
            "byteOffset":142128,
            "target":34962
        },
        {
            "buffer":0,
            "byteLength":26336,
            "byteOffset":181632,
            "target":34962
        },
        {
            "buffer":0,
            "byteLength":39504,
            "byteOffset":207968,
            "target":34962
        },
        {
            "buffer":0,
            "byteLength":65784,
            "byteOffset":247472,
            "target":34962
        },
        {
            "buffer":0,
            "byteLength":43856,
            "byteOffset":313256,
            "target":34962
        },
        {
            "buffer":0,
            "byteLength":65784,
            "byteOffset":357112,
            "target":34962
        },
        {
            "buffer":0,
            "byteLength":58656,
            "byteOffset":422896,
            "target":34963
        },
        {
            "buffer":0,
            "byteLength":65784,
            "byteOffset":481552,
            "target":34962
        },
        {
            "buffer":0,
            "byteLength":43856,
            "byteOffset":547336,
            "target":34962
        },
        {
            "buffer":0,
            "byteLength":65784,
            "byteOffset":591192,
            "target":34962
        },
        {
            "buffer":0,
            "byteLength":65784,
            "byteOffset":656976,
            "target":34962
        },
        {
            "buffer":0,
            "byteLength":43856,
            "byteOffset":722760,
            "target":34962
        },
        {
            "buffer":0,
            "byteLength":65784,
            "byteOffset":766616,
            "target":34962
        },
        {
            "buffer":0,
            "byteLength":65784,
            "byteOffset":832400,
            "target":34962
        },
        {
            "buffer":0,
            "byteLength":43856,
            "byteOffset":898184,
            "target":34962
        },
        {
            "buffer":0,
            "byteLength":65784,
            "byteOffset":942040,
            "target":34962
        },
        {
            "buffer":0,
            "byteLength":65784,
            "byteOffset":1007824,
            "target":34962
        },
        {
            "buffer":0,
            "byteLength":43856,
            "byteOffset":1073608,
            "target":34962
        },
        {
            "buffer":0,
            "byteLength":65784,
            "byteOffset":1117464,
            "target":34962
        },
        {
            "buffer":0,
            "byteLength":65784,
            "byteOffset":1183248,
            "target":34962
        },
        {
            "buffer":0,
            "byteLength":43856,
            "byteOffset":1249032,
            "target":34962
        },
        {
            "buffer":0,
            "byteLength":65784,
            "byteOffset":1292888,
            "target":34962
        }
    ],
    "samplers":[
        {
            "magFilter":9729,
            "minFilter":9987
        }
    ],
    "buffers":[
        {
            "byteLength":1358672,
            "uri":"ShaderBalls.bin"
        }
    ]
}
